<svg width="50" height="48" viewBox="0 0 50 48" fill="none" xmlns="http://www.w3.org/2000/svg">
<path d="M13.4091 40.2814L13.319 40.1273L13.1442 40.0914L4.92047 38.4031L5.84464 30.4118L5.86471 30.2383L5.75099 30.1056L0.518557 24.0011L5.74983 17.9524L5.86483 17.8194L5.84464 17.6448L4.92047 9.65351L13.1442 7.9652L13.3198 7.92915L13.4097 7.7741L17.5465 0.643597L24.832 4.0145L25 4.09221L25.1679 4.0145L32.4553 0.642723L36.6482 7.77607L36.7382 7.92916L36.9121 7.9651L45.0795 9.65303L44.1553 17.6448L44.1351 17.8194L44.2501 17.9524L49.4814 24.0011L44.2489 30.1056L44.1352 30.2383L44.1553 30.4118L45.0795 38.4036L36.9121 40.0915L36.739 40.1273L36.6489 40.2794L32.4564 47.3576L25.1679 43.9853L25 43.9076L24.832 43.9853L17.5454 47.3567L13.4091 40.2814ZM18.5905 43.6115L18.7756 43.8759L19.0732 43.7508L25.0021 41.2573L31.1008 43.7523L31.4029 43.8759L31.5846 43.6047L35.3078 38.0477L41.81 36.3804L42.1432 36.295L42.1087 35.9528L41.4441 29.3625L45.9328 24.2642L46.163 24.0027L45.9356 23.7388L41.4438 18.5261L42.1087 11.9333L42.1437 11.5855L41.8038 11.5041L35.3027 9.94832L31.4678 4.39057L31.2838 4.12389L30.9847 4.24851L24.9986 6.74275L18.8991 4.24752L18.597 4.12394L18.4153 4.39509L14.6942 9.94905L8.19615 11.5041L7.85619 11.5855L7.89126 11.9333L8.55609 18.5261L4.06432 23.7388L3.83689 24.0027L4.06712 24.2642L8.55609 29.3628L7.8912 36.0672L7.85676 36.4144L8.19615 36.4957L14.6988 38.0518L18.5905 43.6115ZM17.1472 21.6126L22.2673 26.9483L22.5484 27.2413L22.8372 26.9557L32.9119 16.9917L34.8778 18.7829L22.5561 30.9961L15.1114 23.6041L17.1472 21.6126Z" fill="white" stroke="#4A4A4A" stroke-width="0.8"/>
</svg>
