<svg width="494" height="375" viewBox="0 0 494 375" fill="none" xmlns="http://www.w3.org/2000/svg">
<path d="M225.472 4.61834L225.499 4.6123C339.472 -14.1052 420.062 39.9967 461.194 113.055C502.35 186.159 503.96 278.157 460.059 335.191C438.076 363.751 418.649 374.219 400.233 374.435C381.775 374.652 364.18 364.581 345.83 351.667C341.079 348.323 336.277 344.788 331.4 341.198C317.492 330.96 302.974 320.273 287.268 312.277C266.025 301.462 242.542 295.53 215.291 302.192C188.189 308.817 161.351 314.987 136.301 318.222C111.247 321.458 88.0189 321.754 68.1292 316.656C48.2556 311.562 31.7138 301.085 19.9977 282.752C8.27211 264.404 1.35088 238.142 0.824415 201.432C-0.225783 128.201 55.8166 79.0031 112.314 48.0749C140.546 32.6198 168.848 21.7521 190.096 14.748C200.719 11.2463 209.576 8.71093 215.776 7.05132C218.876 6.22153 221.312 5.6107 222.972 5.20748C223.802 5.00588 224.438 4.85617 224.866 4.75696C225.08 4.70736 225.242 4.67037 225.35 4.64583L225.472 4.61834Z" stroke="black"/>
</svg>
